<svg xmlns="http://www.w3.org/2000/svg" xmlns:xlink="http://www.w3.org/1999/xlink" width="1000" zoomAndPan="magnify" viewBox="0 0 750 749.999995" height="1000" preserveAspectRatio="xMidYMid meet" version="1.0"><path fill="#ffffff" d="M 375 0.230469 C 368.859375 0.238281 362.722656 0.398438 356.59375 0.703125 C 350.460938 1.011719 344.339844 1.46875 338.230469 2.078125 C 332.121094 2.6875 326.027344 3.441406 319.957031 4.351562 C 313.882812 5.257812 307.835938 6.3125 301.816406 7.515625 C 295.796875 8.71875 289.808594 10.066406 283.851562 11.5625 C 277.898438 13.058594 271.984375 14.703125 266.109375 16.488281 C 260.234375 18.273438 254.410156 20.203125 248.628906 22.277344 C 242.847656 24.347656 237.125 26.558594 231.453125 28.914062 C 225.78125 31.265625 220.171875 33.757812 214.621094 36.382812 C 209.074219 39.011719 203.59375 41.773438 198.179688 44.671875 C 192.765625 47.566406 187.425781 50.59375 182.160156 53.753906 C 176.894531 56.910156 171.710938 60.199219 166.605469 63.609375 C 161.503906 67.023438 156.484375 70.558594 151.554688 74.214844 C 146.625 77.875 141.785156 81.652344 137.039062 85.546875 C 132.292969 89.445312 127.648438 93.453125 123.097656 97.578125 C 118.550781 101.699219 114.105469 105.933594 109.761719 110.273438 C 105.421875 114.617188 101.1875 119.0625 97.0625 123.609375 C 92.941406 128.160156 88.929688 132.808594 85.035156 137.550781 C 81.140625 142.296875 77.363281 147.136719 73.703125 152.066406 C 70.046875 156.996094 66.511719 162.015625 63.097656 167.121094 C 59.683594 172.222656 56.398438 177.410156 53.242188 182.671875 C 50.082031 187.9375 47.054688 193.277344 44.160156 198.691406 C 41.261719 204.105469 38.5 209.585938 35.871094 215.136719 C 33.242188 220.683594 30.753906 226.292969 28.402344 231.964844 C 26.046875 237.636719 23.835938 243.363281 21.761719 249.140625 C 19.691406 254.921875 17.761719 260.75 15.976562 266.621094 C 14.1875 272.496094 12.546875 278.410156 11.050781 284.367188 C 9.554688 290.320312 8.203125 296.308594 7 302.328125 C 5.796875 308.351562 4.742188 314.394531 3.835938 320.46875 C 2.929688 326.542969 2.171875 332.632812 1.566406 338.742188 C 0.957031 344.851562 0.5 350.972656 0.191406 357.105469 C -0.117188 363.238281 -0.273438 369.371094 -0.28125 375.511719 C 20.335938 873.371094 729.738281 873.226562 750.28125 375.511719 C 750.273438 369.371094 750.117188 363.234375 749.808594 357.101562 C 749.5 350.96875 749.042969 344.847656 748.433594 338.738281 C 747.828125 332.628906 747.070312 326.539062 746.164062 320.464844 C 745.257812 314.394531 744.203125 308.347656 743 302.328125 C 741.796875 296.304688 740.445312 290.316406 738.949219 284.363281 C 737.453125 278.410156 735.8125 272.496094 734.023438 266.621094 C 732.238281 260.746094 730.308594 254.917969 728.238281 249.140625 C 726.164062 243.359375 723.953125 237.632812 721.597656 231.964844 C 719.246094 226.292969 716.753906 220.683594 714.128906 215.132812 C 711.5 209.585938 708.738281 204.101562 705.839844 198.691406 C 702.945312 193.277344 699.917969 187.9375 696.757812 182.671875 C 693.601562 177.40625 690.316406 172.222656 686.902344 167.117188 C 683.488281 162.015625 679.953125 156.996094 676.296875 152.066406 C 672.636719 147.136719 668.859375 142.296875 664.964844 137.550781 C 661.066406 132.804688 657.058594 128.160156 652.933594 123.609375 C 648.8125 119.058594 644.578125 114.613281 640.238281 110.273438 C 635.894531 105.933594 631.449219 101.699219 626.902344 97.578125 C 622.351562 93.453125 617.707031 89.441406 612.960938 85.546875 C 608.214844 81.652344 603.375 77.875 598.445312 74.214844 C 593.515625 70.558594 588.496094 67.023438 583.394531 63.609375 C 578.289062 60.195312 573.105469 56.910156 567.839844 53.753906 C 562.574219 50.59375 557.234375 47.566406 551.820312 44.671875 C 546.40625 41.773438 540.925781 39.011719 535.375 36.382812 C 529.828125 33.757812 524.21875 31.265625 518.546875 28.914062 C 512.875 26.558594 507.148438 24.347656 501.371094 22.277344 C 495.589844 20.203125 489.765625 18.273438 483.890625 16.488281 C 478.015625 14.699219 472.101562 13.058594 466.148438 11.5625 C 460.191406 10.066406 454.203125 8.71875 448.183594 7.515625 C 442.164062 6.3125 436.117188 5.257812 430.042969 4.351562 C 423.972656 3.441406 417.878906 2.6875 411.769531 2.078125 C 405.660156 1.46875 399.539062 1.011719 393.40625 0.703125 C 387.277344 0.398438 381.140625 0.238281 375 0.230469 Z M 162.238281 209.933594 L 587.761719 209.933594 C 588.667969 209.933594 589.554688 210.070312 590.417969 210.347656 C 591.285156 210.625 592.085938 211.027344 592.824219 211.550781 C 593.566406 212.078125 594.207031 212.703125 594.75 213.429688 C 595.296875 214.15625 595.714844 214.949219 596.011719 215.808594 C 596.308594 216.664062 596.46875 217.546875 596.492188 218.453125 C 596.515625 219.363281 596.398438 220.25 596.140625 221.121094 C 595.886719 221.992188 595.503906 222.804688 594.996094 223.554688 C 594.488281 224.308594 593.878906 224.964844 593.164062 225.527344 L 382.332031 391.597656 C 381.808594 391.996094 381.257812 392.351562 380.675781 392.660156 C 380.097656 392.972656 379.492188 393.230469 378.871094 393.441406 C 378.246094 393.65625 377.609375 393.8125 376.960938 393.921875 C 376.3125 394.027344 375.65625 394.082031 375 394.082031 C 374.339844 394.082031 373.6875 394.027344 373.039062 393.921875 C 372.386719 393.8125 371.75 393.65625 371.128906 393.441406 C 370.503906 393.230469 369.902344 392.972656 369.320312 392.660156 C 368.742188 392.351562 368.1875 391.996094 367.664062 391.597656 L 156.835938 225.527344 C 156.121094 224.964844 155.511719 224.308594 155.003906 223.554688 C 154.496094 222.804688 154.113281 221.992188 153.859375 221.121094 C 153.601562 220.25 153.484375 219.363281 153.507812 218.453125 C 153.53125 217.546875 153.691406 216.664062 153.988281 215.808594 C 154.285156 214.949219 154.703125 214.15625 155.25 213.429688 C 155.792969 212.703125 156.433594 212.078125 157.175781 211.550781 C 157.914062 211.027344 158.714844 210.625 159.582031 210.347656 C 160.445312 210.070312 161.332031 209.933594 162.238281 209.933594 Z M 635.195312 520.140625 C 635.195312 520.828125 635.160156 521.511719 635.09375 522.195312 C 635.027344 522.878906 634.925781 523.554688 634.792969 524.230469 C 634.660156 524.902344 634.492188 525.566406 634.292969 526.222656 C 634.09375 526.878906 633.863281 527.523438 633.601562 528.160156 C 633.339844 528.792969 633.046875 529.414062 632.722656 530.015625 C 632.398438 530.621094 632.046875 531.210938 631.664062 531.78125 C 631.285156 532.351562 630.875 532.902344 630.441406 533.433594 C 630.003906 533.960938 629.542969 534.46875 629.058594 534.957031 C 628.574219 535.441406 628.066406 535.902344 627.535156 536.335938 C 627.003906 536.769531 626.457031 537.179688 625.882812 537.5625 C 625.3125 537.941406 624.726562 538.292969 624.121094 538.617188 C 623.515625 538.941406 622.898438 539.234375 622.261719 539.496094 C 621.628906 539.757812 620.984375 539.992188 620.328125 540.1875 C 619.671875 540.386719 619.003906 540.554688 618.332031 540.6875 C 617.660156 540.824219 616.980469 540.921875 616.300781 540.992188 C 615.617188 541.058594 614.933594 541.089844 614.246094 541.089844 L 135.753906 541.089844 C 135.066406 541.089844 134.382812 541.058594 133.699219 540.992188 C 133.019531 540.921875 132.339844 540.824219 131.667969 540.6875 C 130.992188 540.554688 130.328125 540.386719 129.671875 540.1875 C 129.015625 539.992188 128.371094 539.757812 127.738281 539.496094 C 127.101562 539.234375 126.484375 538.941406 125.878906 538.617188 C 125.273438 538.292969 124.6875 537.941406 124.113281 537.5625 C 123.542969 537.179688 122.996094 536.769531 122.464844 536.335938 C 121.933594 535.902344 121.425781 535.441406 120.941406 534.957031 C 120.457031 534.46875 119.996094 533.960938 119.558594 533.433594 C 119.125 532.902344 118.714844 532.351562 118.335938 531.78125 C 117.953125 531.210938 117.601562 530.621094 117.277344 530.015625 C 116.953125 529.414062 116.660156 528.792969 116.398438 528.160156 C 116.136719 527.523438 115.90625 526.878906 115.707031 526.222656 C 115.507812 525.566406 115.339844 524.902344 115.207031 524.230469 C 115.074219 523.554688 114.972656 522.878906 114.90625 522.195312 C 114.839844 521.511719 114.804688 520.828125 114.804688 520.140625 L 114.804688 240.460938 C 114.804688 239.640625 114.917969 238.835938 115.144531 238.050781 C 115.371094 237.261719 115.699219 236.519531 116.136719 235.828125 C 116.570312 235.132812 117.09375 234.511719 117.703125 233.964844 C 118.3125 233.414062 118.984375 232.964844 119.722656 232.605469 C 120.460938 232.246094 121.234375 232 122.039062 231.859375 C 122.847656 231.71875 123.660156 231.691406 124.472656 231.78125 C 125.289062 231.867188 126.074219 232.066406 126.835938 232.375 C 127.59375 232.683594 128.296875 233.09375 128.9375 233.601562 L 353.003906 410.046875 C 353.773438 410.671875 354.570312 411.265625 355.390625 411.820312 C 356.210938 412.378906 357.054688 412.902344 357.917969 413.386719 C 358.785156 413.871094 359.667969 414.320312 360.570312 414.730469 C 361.476562 415.140625 362.394531 415.511719 363.328125 415.84375 C 364.265625 416.175781 365.210938 416.46875 366.171875 416.71875 C 367.132812 416.96875 368.101562 417.179688 369.078125 417.347656 C 370.058594 417.515625 371.039062 417.644531 372.03125 417.726562 C 373.019531 417.8125 374.007812 417.855469 375 417.855469 C 375.992188 417.855469 376.984375 417.8125 377.972656 417.726562 C 378.960938 417.644531 379.945312 417.515625 380.921875 417.347656 C 381.902344 417.179688 382.871094 416.96875 383.828125 416.71875 C 384.789062 416.46875 385.738281 416.175781 386.671875 415.84375 C 387.609375 415.511719 388.527344 415.140625 389.429688 414.730469 C 390.332031 414.320312 391.21875 413.871094 392.082031 413.386719 C 392.949219 412.902344 393.792969 412.378906 394.613281 411.820312 C 395.433594 411.265625 396.230469 410.671875 397 410.046875 L 621.0625 233.601562 C 621.703125 233.09375 622.40625 232.683594 623.164062 232.375 C 623.921875 232.066406 624.710938 231.867188 625.527344 231.78125 C 626.339844 231.691406 627.152344 231.71875 627.957031 231.859375 C 628.765625 232 629.539062 232.246094 630.277344 232.605469 C 631.011719 232.964844 631.6875 233.414062 632.296875 233.964844 C 632.90625 234.511719 633.429688 235.132812 633.863281 235.828125 C 634.300781 236.519531 634.628906 237.261719 634.855469 238.050781 C 635.082031 238.835938 635.195312 239.640625 635.195312 240.460938 Z M 635.195312 520.140625 " fill-opacity="1" fill-rule="nonzero"/></svg>