<svg xmlns="http://www.w3.org/2000/svg" xmlns:xlink="http://www.w3.org/1999/xlink" width="1000" zoomAndPan="magnify" viewBox="0 0 750 749.999995" height="1000" preserveAspectRatio="xMidYMid meet" version="1.0"><path fill="#ffffff" d="M 332.804688 21.65625 C 163.632812 40.40625 25.78125 176.910156 5.367188 345.820312 C 4.707031 351.121094 4.160156 356.433594 3.726562 361.761719 C 3.296875 367.085938 2.976562 372.421875 2.773438 377.761719 C 2.570312 383.097656 2.480469 388.441406 2.507812 393.785156 C 2.53125 399.128906 2.671875 404.46875 2.925781 409.804688 C 3.179688 415.144531 3.546875 420.472656 4.03125 425.792969 C 4.511719 431.117188 5.109375 436.425781 5.820312 441.722656 C 6.53125 447.015625 7.351562 452.296875 8.289062 457.554688 C 9.226562 462.816406 10.273438 468.054688 11.433594 473.269531 C 12.59375 478.488281 13.867188 483.675781 15.25 488.835938 C 16.632812 494 18.125 499.128906 19.730469 504.226562 C 21.332031 509.324219 23.042969 514.382812 24.863281 519.40625 C 26.683594 524.429688 28.609375 529.414062 30.644531 534.355469 C 32.675781 539.296875 34.816406 544.191406 37.058594 549.042969 C 39.300781 553.890625 41.648438 558.691406 44.097656 563.441406 C 46.546875 568.191406 49.09375 572.886719 51.746094 577.523438 C 54.394531 582.164062 57.144531 586.746094 59.988281 591.269531 C 62.835938 595.789062 65.777344 600.25 68.816406 604.644531 C 71.851562 609.042969 74.984375 613.371094 78.207031 617.632812 C 81.429688 621.894531 84.742188 626.085938 88.144531 630.207031 C 91.546875 634.328125 95.035156 638.371094 98.613281 642.34375 C 102.1875 646.3125 105.847656 650.203125 109.589844 654.019531 C 113.332031 657.832031 117.15625 661.5625 121.058594 665.214844 C 124.960938 668.863281 128.941406 672.429688 132.996094 675.90625 C 137.050781 679.386719 141.179688 682.777344 145.382812 686.078125 C 149.582031 689.382812 153.851562 692.59375 158.191406 695.710938 C 162.527344 698.832031 166.929688 701.855469 171.398438 704.789062 C 175.867188 707.71875 180.398438 710.550781 184.984375 713.289062 C 189.574219 716.023438 194.222656 718.664062 198.925781 721.199219 C 203.625 723.738281 208.382812 726.171875 213.1875 728.507812 C 217.996094 730.839844 222.851562 733.070312 227.753906 735.195312 C 232.65625 737.320312 237.601562 739.339844 242.589844 741.253906 C 247.578125 743.167969 252.605469 744.972656 257.671875 746.671875 C 276.34375 749.65625 282.3125 738.089844 282.3125 728.027344 L 282.3125 664.964844 C 178.976562 687.410156 156.976562 615 156.976562 615 C 139.863281 571.714844 115.570312 560.148438 115.570312 560.148438 C 81.609375 537.015625 118.210938 537.78125 118.210938 537.78125 C 155.5 540.421875 175.277344 576.207031 175.277344 576.207031 C 207.734375 632.90625 262.558594 616.109375 283.816406 607.15625 C 287.171875 582.914062 297.019531 566.488281 307.320312 557.164062 C 224.371094 547.84375 137.566406 515.757812 137.566406 373.652344 C 137.566406 332.246094 151.75 299.050781 175.992188 272.5625 C 172.269531 263.238281 159.195312 224.445312 179.714844 174.085938 C 179.714844 174.085938 211.0625 163.996094 282.3125 212.140625 C 297.515625 208.046875 312.921875 204.96875 328.53125 202.902344 C 344.136719 200.839844 359.816406 199.804688 375.558594 199.804688 C 391.304688 199.804688 406.980469 200.839844 422.589844 202.902344 C 438.199219 204.96875 453.605469 208.046875 468.808594 212.140625 C 540.109375 163.996094 571.40625 174.085938 571.40625 174.085938 C 591.898438 224.445312 578.851562 263.238281 575.128906 272.5625 C 599.371094 298.96875 613.554688 332.246094 613.554688 373.652344 C 613.554688 516.125 526.246094 547.472656 443.085938 556.796875 C 456.5 568.363281 468.808594 591.125 468.808594 625.800781 L 468.808594 728.027344 C 468.808594 738.089844 474.777344 750.027344 493.816406 746.671875 C 499.222656 744.859375 504.585938 742.925781 509.90625 740.867188 C 515.226562 738.808594 520.496094 736.632812 525.714844 734.332031 C 530.933594 732.035156 536.09375 729.617188 541.203125 727.082031 C 546.3125 724.542969 551.359375 721.894531 556.347656 719.125 C 561.332031 716.359375 566.253906 713.480469 571.109375 710.488281 C 575.964844 707.496094 580.746094 704.390625 585.460938 701.179688 C 590.171875 697.96875 594.808594 694.652344 599.371094 691.226562 C 603.929688 687.804688 608.410156 684.277344 612.808594 680.648438 C 617.207031 677.015625 621.519531 673.289062 625.75 669.460938 C 629.976562 665.636719 634.117188 661.714844 638.164062 657.695312 C 642.214844 653.679688 646.167969 649.574219 650.027344 645.375 C 653.886719 641.175781 657.648438 636.894531 661.3125 632.523438 C 664.976562 628.152344 668.539062 623.699219 672 619.167969 C 675.460938 614.632812 678.8125 610.023438 682.0625 605.335938 C 685.3125 600.648438 688.453125 595.890625 691.480469 591.058594 C 694.511719 586.226562 697.429688 581.328125 700.238281 576.363281 C 703.042969 571.398438 705.734375 566.375 708.3125 561.285156 C 710.886719 556.199219 713.34375 551.054688 715.683594 545.851562 C 718.027344 540.652344 720.246094 535.402344 722.34375 530.097656 C 724.445312 524.796875 726.421875 519.449219 728.277344 514.054688 C 730.128906 508.664062 731.859375 503.230469 733.464844 497.757812 C 735.070312 492.285156 736.550781 486.777344 737.90625 481.238281 C 739.257812 475.699219 740.484375 470.128906 741.582031 464.535156 C 742.679688 458.9375 743.648438 453.320312 744.492188 447.679688 C 745.332031 442.039062 746.042969 436.382812 746.625 430.707031 C 747.207031 425.035156 747.65625 419.351562 747.976562 413.65625 C 748.300781 407.964844 748.488281 402.265625 748.550781 396.5625 C 748.609375 390.859375 748.539062 385.160156 748.339844 379.460938 C 748.136719 373.761719 747.804688 368.070312 747.34375 362.382812 C 746.882812 356.699219 746.289062 351.027344 745.566406 345.371094 C 744.847656 339.714844 743.996094 334.078125 743.015625 328.460938 C 742.035156 322.839844 740.925781 317.25 739.691406 311.679688 C 738.453125 306.113281 737.089844 300.578125 735.601562 295.074219 C 734.109375 289.566406 732.496094 284.101562 730.753906 278.667969 C 729.015625 273.238281 727.148438 267.851562 725.164062 262.503906 C 723.175781 257.160156 721.066406 251.863281 718.835938 246.613281 C 716.605469 241.363281 714.257812 236.167969 711.789062 231.027344 C 709.320312 225.886719 706.734375 220.804688 704.035156 215.78125 C 701.332031 210.761719 698.519531 205.800781 695.589844 200.90625 C 692.660156 196.015625 689.621094 191.191406 686.472656 186.4375 C 683.324219 181.679688 680.066406 177 676.703125 172.394531 C 673.339844 167.789062 669.871094 163.265625 666.300781 158.816406 C 662.730469 154.371094 659.058594 150.007812 655.289062 145.730469 C 651.515625 141.453125 647.648438 137.261719 643.6875 133.164062 C 639.722656 129.0625 635.667969 125.054688 631.523438 121.136719 C 627.375 117.222656 623.140625 113.40625 618.820312 109.683594 C 614.5 105.960938 610.09375 102.34375 605.605469 98.824219 C 601.121094 95.304688 596.554688 91.886719 591.910156 88.578125 C 587.265625 85.269531 582.546875 82.066406 577.757812 78.972656 C 572.96875 75.878906 568.109375 72.894531 563.179688 70.023438 C 558.253906 67.152344 553.261719 64.394531 548.210938 61.753906 C 543.15625 59.109375 538.042969 56.585938 532.875 54.175781 C 527.703125 51.765625 522.484375 49.476562 517.207031 47.308594 C 511.933594 45.140625 506.613281 43.09375 501.246094 41.167969 C 495.878906 39.242188 490.46875 37.441406 485.015625 35.761719 C 479.566406 34.085938 474.082031 32.53125 468.558594 31.105469 C 463.035156 29.679688 457.484375 28.382812 451.902344 27.210938 C 446.324219 26.039062 440.71875 24.996094 435.089844 24.078125 C 429.460938 23.164062 423.8125 22.378906 418.148438 21.722656 C 412.480469 21.066406 406.804688 20.539062 401.117188 20.144531 C 395.425781 19.746094 389.730469 19.480469 384.03125 19.347656 C 378.328125 19.210938 372.628906 19.207031 366.925781 19.332031 C 361.222656 19.460938 355.527344 19.714844 349.839844 20.101562 C 344.148438 20.492188 338.472656 21.007812 332.804688 21.65625 Z M 332.804688 21.65625 " fill-opacity="1" fill-rule="nonzero"/></svg>