<svg xmlns="http://www.w3.org/2000/svg" xmlns:xlink="http://www.w3.org/1999/xlink" width="1000" zoomAndPan="magnify" viewBox="0 0 750 749.999995" height="1000" preserveAspectRatio="xMidYMid meet" version="1.0"><defs><clipPath id="2e90c58fe8"><path d="M 375 0 C 167.894531 0 0 167.894531 0 375 C 0 582.105469 167.894531 750 375 750 C 582.105469 750 750 582.105469 750 375 C 750 167.894531 582.105469 0 375 0 Z M 375 0 " clip-rule="nonzero"/></clipPath><clipPath id="e753a8e3b7"><path d="M 144.117188 144.117188 L 606 144.117188 L 606 606 L 144.117188 606 Z M 144.117188 144.117188 " clip-rule="nonzero"/></clipPath></defs><g clip-path="url(#2e90c58fe8)"><rect x="-75" width="900" fill="#ffffff" y="-74.999999" height="899.999994" fill-opacity="1"/></g><g clip-path="url(#e753a8e3b7)"><path fill="#000000" d="M 567.304688 144.117188 L 182.925781 144.117188 C 161.671875 144.117188 144.578125 161.441406 144.578125 182.460938 L 144.578125 567.535156 C 144.578125 588.789062 161.902344 605.882812 182.925781 605.882812 L 567.074219 605.882812 C 588.328125 605.882812 605.421875 588.558594 605.421875 567.535156 L 605.421875 182.460938 C 605.652344 161.441406 588.558594 144.117188 567.304688 144.117188 Z M 281.097656 525.03125 L 212.953125 525.03125 L 212.953125 320.367188 L 281.097656 320.367188 Z M 246.910156 295.652344 C 225.429688 295.652344 208.101562 278.328125 208.101562 256.84375 C 208.101562 235.359375 225.429688 218.035156 246.910156 218.035156 C 268.394531 218.035156 285.71875 235.359375 285.71875 256.84375 C 285.71875 278.328125 268.394531 295.652344 246.910156 295.652344 Z M 537.507812 525.03125 L 469.132812 525.03125 L 467.515625 403.527344 C 467.515625 403.527344 469.132812 371.1875 433.789062 371.417969 C 398.445312 371.648438 393.59375 403.527344 393.59375 403.527344 L 393.59375 525.03125 L 324.757812 525.03125 L 324.757812 320.367188 L 390.824219 320.367188 L 390.824219 348.550781 C 390.824219 348.550781 393.59375 339.308594 408.839844 328.453125 C 424.085938 317.597656 449.265625 315.285156 460.121094 315.75 C 470.980469 316.210938 485.761719 314.363281 510.480469 331.457031 C 537.042969 349.707031 537.738281 397.523438 537.738281 397.523438 Z M 537.507812 525.03125 " fill-opacity="1" fill-rule="nonzero"/></g></svg>